<mxfile host="65bd71144e">
    <diagram id="1WS0C2TTASSNU9hdsVjz" name="Page-1">
        <mxGraphModel dx="821" dy="696" grid="1" gridSize="10" guides="1" tooltips="1" connect="1" arrows="1" fold="1" page="1" pageScale="1" pageWidth="100" pageHeight="100" background="none" math="0" shadow="0">
            <root>
                <mxCell id="0"/>
                <mxCell id="1" parent="0"/>
                <mxCell id="2" value="" style="shape=table;startSize=0;container=1;collapsible=0;childLayout=tableLayout;fontStyle=1;fontSize=30;strokeWidth=5;sketch=0;opacity=60;strokeColor=#b46504;fillColor=#fad7ac;fontColor=#000000;" vertex="1" parent="1">
                    <mxGeometry x="345" y="345" width="210" height="210" as="geometry"/>
                </mxCell>
                <mxCell id="3" value="" style="shape=partialRectangle;collapsible=0;dropTarget=0;pointerEvents=0;top=0;left=0;bottom=0;right=0;points=[[0,0.5],[1,0.5]];portConstraint=eastwest;fontStyle=1;fontSize=30;strokeWidth=5;sketch=0;opacity=60;strokeColor=#b46504;fillColor=#fad7ac;" vertex="1" parent="2">
                    <mxGeometry width="210" height="105" as="geometry"/>
                </mxCell>
                <mxCell id="4" value="0&lt;br style=&quot;font-size: 30px;&quot;&gt;(0,0)" style="shape=partialRectangle;html=1;whiteSpace=wrap;connectable=0;overflow=hidden;top=0;left=0;bottom=0;right=0;pointerEvents=1;fontStyle=1;fontSize=30;strokeWidth=5;sketch=0;opacity=60;strokeColor=#b46504;fillColor=#fad7ac;fontColor=#000000;" vertex="1" parent="3">
                    <mxGeometry width="105" height="105" as="geometry"/>
                </mxCell>
                <mxCell id="5" value="&lt;font face=&quot;helvetica&quot; style=&quot;font-size: 30px;&quot;&gt;1&lt;/font&gt;&lt;br style=&quot;font-family: helvetica; font-size: 30px; font-style: normal; letter-spacing: normal; text-align: center; text-indent: 0px; text-transform: none; word-spacing: 0px;&quot;&gt;&lt;span style=&quot;font-family: helvetica; font-size: 30px; font-style: normal; letter-spacing: normal; text-align: center; text-indent: 0px; text-transform: none; word-spacing: 0px; display: inline; float: none;&quot;&gt;(0,1)&lt;/span&gt;" style="shape=partialRectangle;html=1;whiteSpace=wrap;connectable=0;overflow=hidden;top=0;left=0;bottom=0;right=0;pointerEvents=1;fontStyle=1;fontSize=30;strokeWidth=5;sketch=0;opacity=60;strokeColor=#b46504;fillColor=#fad7ac;fontColor=#000000;" vertex="1" parent="3">
                    <mxGeometry x="105" width="105" height="105" as="geometry"/>
                </mxCell>
                <mxCell id="6" value="" style="shape=partialRectangle;collapsible=0;dropTarget=0;pointerEvents=0;top=0;left=0;bottom=0;right=0;points=[[0,0.5],[1,0.5]];portConstraint=eastwest;fontStyle=1;fontSize=30;strokeWidth=5;sketch=0;opacity=60;strokeColor=#b46504;fillColor=#fad7ac;" vertex="1" parent="2">
                    <mxGeometry y="105" width="210" height="105" as="geometry"/>
                </mxCell>
                <mxCell id="7" value="&lt;font face=&quot;helvetica&quot; style=&quot;font-size: 30px;&quot;&gt;2&lt;/font&gt;&lt;br style=&quot;font-family: helvetica; font-size: 30px; font-style: normal; letter-spacing: normal; text-align: center; text-indent: 0px; text-transform: none; word-spacing: 0px;&quot;&gt;&lt;span style=&quot;font-family: helvetica; font-size: 30px; font-style: normal; letter-spacing: normal; text-align: center; text-indent: 0px; text-transform: none; word-spacing: 0px; display: inline; float: none;&quot;&gt;(1,0)&lt;/span&gt;" style="shape=partialRectangle;html=1;whiteSpace=wrap;connectable=0;overflow=hidden;top=0;left=0;bottom=0;right=0;pointerEvents=1;fontStyle=1;fontSize=30;strokeWidth=5;sketch=0;opacity=60;strokeColor=#b46504;fillColor=#fad7ac;fontColor=#000000;" vertex="1" parent="6">
                    <mxGeometry width="105" height="105" as="geometry"/>
                </mxCell>
                <mxCell id="8" value="&lt;font face=&quot;helvetica&quot; style=&quot;font-size: 30px;&quot;&gt;3&lt;/font&gt;&lt;br style=&quot;font-family: helvetica; font-size: 30px; font-style: normal; letter-spacing: normal; text-align: center; text-indent: 0px; text-transform: none; word-spacing: 0px;&quot;&gt;&lt;span style=&quot;font-family: helvetica; font-size: 30px; font-style: normal; letter-spacing: normal; text-align: center; text-indent: 0px; text-transform: none; word-spacing: 0px; display: inline; float: none;&quot;&gt;(1,1)&lt;/span&gt;&lt;br style=&quot;font-size: 30px;&quot;&gt;" style="shape=partialRectangle;html=1;whiteSpace=wrap;connectable=0;overflow=hidden;top=0;left=0;bottom=0;right=0;pointerEvents=1;fontStyle=1;fontSize=30;strokeWidth=5;sketch=0;opacity=60;strokeColor=#b46504;fillColor=#fad7ac;fontColor=#000000;" vertex="1" parent="6">
                    <mxGeometry x="105" width="105" height="105" as="geometry"/>
                </mxCell>
            </root>
        </mxGraphModel>
    </diagram>
</mxfile>